<?xml version="1.0" standalone="no"?>
<!DOCTYPE svg PUBLIC "-//W3C//DTD SVG 20010904//EN"
 "http://www.w3.org/TR/2001/REC-SVG-20010904/DTD/svg10.dtd">
<svg version="1.0" xmlns="http://www.w3.org/2000/svg"
 width="2133.000000pt" height="2133.000000pt" viewBox="0 0 2133.000000 2133.000000"
 preserveAspectRatio="xMidYMid meet">
<metadata>
Created by potrace 1.11, written by Peter Selinger 2001-2013
</metadata>
<g transform="translate(0.000000,2133.000000) scale(0.100000,-0.100000)"
fill="#000000" stroke="none">
<path d="M0 10665 l0 -10665 10665 0 10665 0 0 10665 0 10665 -10665 0 -10665
0 0 -10665z m21310 2 l0 -10644 -3202 -6 c-4099 -9 -10767 -9 -14876 0 l-3212
6 0 10644 0 10643 10645 0 10645 0 0 -10643z"/>
<path d="M10320 20564 c-30 -2 -129 -8 -220 -14 -932 -60 -1872 -262 -2760
-592 -969 -360 -1890 -882 -2708 -1535 -593 -473 -1164 -1051 -1629 -1648
-1153 -1484 -1857 -3262 -2027 -5125 -54 -590 -54 -1230 0 -1820 194 -2128
1086 -4143 2534 -5725 146 -159 535 -547 685 -681 690 -620 1531 -1180 2350
-1566 1199 -565 2396 -866 3735 -939 275 -15 985 -6 1245 15 1640 137 3100
617 4465 1469 444 277 914 629 1305 975 758 673 1425 1479 1932 2332 1050
1770 1516 3796 1348 5855 -78 950 -310 1930 -667 2823 -799 1999 -2229 3677
-4083 4790 -1117 670 -2361 1112 -3655 1297 -177 25 -462 55 -710 76 -128 10
-1024 21 -1140 13z m780 -584 c1600 -62 3081 -500 4435 -1313 692 -415 1361
-951 1922 -1539 1930 -2022 2835 -4770 2488 -7553 -359 -2877 -2062 -5422
-4600 -6874 -204 -117 -621 -327 -840 -424 -1413 -622 -2957 -880 -4510 -751
-1182 97 -2328 421 -3385 955 -1566 791 -2875 2009 -3777 3514 -697 1163
-1132 2481 -1262 3825 -34 343 -43 549 -43 920 0 488 27 877 92 1332 372 2589
1836 4903 4025 6365 1610 1074 3529 1617 5455 1543z"/>
<path d="M10235 19479 c-1854 -114 -3632 -819 -5056 -2005 -394 -329 -798
-730 -1115 -1109 -1222 -1461 -1925 -3236 -2034 -5139 -13 -229 -13 -743 0
-972 96 -1681 654 -3260 1633 -4624 512 -712 1162 -1374 1873 -1906 1379
-1031 3007 -1623 4748 -1725 262 -15 968 -6 1211 15 1139 102 2157 385 3150
876 1716 848 3103 2228 3960 3940 847 1692 1119 3624 774 5509 -423 2310
-1798 4391 -3764 5692 -1314 870 -2767 1355 -4342 1449 -201 12 -835 11 -1038
-1z m-1195 -4144 l0 -615 -1260 0 -1260 0 0 615 0 615 1260 0 1260 0 0 -615z
m-10 -1920 l0 -1255 -1250 0 -1250 0 0 1255 0 1255 1250 0 1250 0 0 -1255z
m2560 0 l0 -1255 -1250 0 -1250 0 0 1255 0 1255 1250 0 1250 0 0 -1255z m2560
0 l0 -1255 -1250 0 -1250 0 0 1255 0 1255 1250 0 1250 0 0 -1255z m2558 -1282
l2 -1253 -1250 0 -1250 0 0 1255 0 1255 1248 -2 1247 -3 3 -1252z m-7678
-1268 l0 -1245 -1250 0 -1250 0 0 1245 0 1245 1250 0 1250 0 0 -1245z m0
-2550 l0 -1255 -1250 0 -1250 0 0 1255 0 1255 1250 0 1250 0 0 -1255z m0
-2560 l0 -1255 -1250 0 -1250 0 0 1255 0 1255 1250 0 1250 0 0 -1255z"/>
</g>
</svg>
